<svg xmlns="http://www.w3.org/2000/svg" width="520" height="148" viewBox="0 0 520 148" role="img" aria-labelledby="title desc">
  <title id="title">Father's Day logo</title>
  <desc id="desc">A premium Father's Day website logo with a father and child embrace mark.</desc>
  <defs>
    <linearGradient id="gold" x1="24" x2="128" y1="20" y2="132" gradientUnits="userSpaceOnUse">
      <stop stop-color="#f1d89b"/>
      <stop offset=".47" stop-color="#c89a45"/>
      <stop offset="1" stop-color="#8c6020"/>
    </linearGradient>
    <linearGradient id="ink" x1="168" x2="468" y1="36" y2="122" gradientUnits="userSpaceOnUse">
      <stop stop-color="#102623"/>
      <stop offset="1" stop-color="#30423f"/>
    </linearGradient>
  </defs>
  <g fill="none" fill-rule="evenodd">
    <path fill="#fbf8ef" d="M74 7c36.45 0 66 29.55 66 66s-29.55 66-66 66S8 109.45 8 73 37.55 7 74 7Z"/>
    <path stroke="url(#gold)" stroke-width="4" d="M74 9c35.35 0 64 28.65 64 64s-28.65 64-64 64-64-28.65-64-64S38.65 9 74 9Z"/>
    <path fill="#102623" d="M79.64 40.1c9.56 0 17.1 7.53 17.1 16.96 0 7.44-4.75 13.78-11.37 16.04 15.13 4.9 25.98 18.83 25.98 35.21v2.69H82.71V95.26c0-12.65-10.34-22.92-23.08-22.92H50.2v-8.95c0-12.85 10.52-23.29 23.49-23.29h5.95Z"/>
    <path fill="url(#gold)" d="M51.71 68.84c8.66 0 15.68 6.96 15.68 15.55 0 6.23-3.7 11.6-9.04 14.08 9.52 2.94 16.43 11.72 16.43 22.1v1.43H37.87v-1.43c0-10.38 6.9-19.16 16.43-22.1-5.35-2.48-9.04-7.85-9.04-14.08 0-8.59 7.02-15.55 15.68-15.55h.77Z"/>
    <path stroke="#c89a45" stroke-linecap="round" stroke-width="6" d="M45.2 105.4c-8.98-5.94-15.12-16.39-15.12-28.43 0-15.48 10.16-28.55 24.08-32.2"/>
    <path stroke="#102623" stroke-linecap="round" stroke-width="6" d="M91.13 91.25c7.06-5.48 11.59-14.02 11.59-23.61 0-10.74-5.68-20.16-14.23-25.45"/>
    <path fill="url(#ink)" d="M174 43.7h71.6v16.09h-51.74v18.84h45.46V94h-45.46v33.35H174V43.7Zm83.55 25.85h18.26v6.55c3.72-5.1 9.26-7.65 16.61-7.65 7.52 0 13.48 2.46 17.87 7.37 4.39 4.92 6.58 11.64 6.58 20.18v31.35H298.6V98.42c0-4.29-.96-7.58-2.88-9.87-1.92-2.28-4.64-3.43-8.17-3.43-3.61 0-6.48 1.2-8.62 3.6-2.14 2.4-3.21 5.76-3.21 10.09v28.54h-18.17v-57.8Zm90.43 58.9c-6.55 0-11.67-1.72-15.37-5.15-3.7-3.43-5.54-8.39-5.54-14.86V84.3h-8.98V69.55h8.98V54.92h18.17v14.63h14.91V84.3h-14.91v20.95c0 2.61.61 4.47 1.84 5.6 1.23 1.12 3.25 1.68 6.07 1.68 2.33 0 4.59-.32 6.78-.95v14.24c-3.45 1.75-7.43 2.62-11.95 2.62Zm42.6 0c-9.41 0-17.07-2.78-22.98-8.35-5.92-5.57-8.88-12.77-8.88-21.61 0-8.76 2.89-15.96 8.68-21.61 5.8-5.64 13.13-8.46 22.01-8.46 9.21 0 16.45 2.74 21.72 8.24 5.27 5.49 7.9 12.98 7.9 22.45v4.69h-42.39c1.03 3.49 2.89 6.18 5.57 8.07 2.69 1.89 6.08 2.83 10.18 2.83 6.41 0 11.9-2.16 16.46-6.49l8.68 10.35c-6.6 6.6-15.59 9.89-26.95 9.89Zm10.98-36.18c-.52-3.45-1.8-6.16-3.86-8.12-2.05-1.97-4.78-2.95-8.18-2.95-3.2 0-5.93.99-8.17 2.98-2.24 1.98-3.78 4.68-4.6 8.09h24.81Zm27.38-22.72h18.26v9.84c3.32-7.38 8.85-10.94 16.6-10.68v18.67h-1.58c-5.22 0-9.08 1.34-11.58 4.03-2.5 2.69-3.75 6.93-3.75 12.72v23.22h-17.95v-57.8Z"/>
    <path fill="#9f6e24" d="M176.52 26.75c0-5.66 3.97-9.72 9.69-9.72 5.06 0 8.73 3 9.31 7.72h-4.44c-.49-2.38-2.27-3.82-4.95-3.82-3.18 0-5.12 2.33-5.12 5.8 0 3.49 1.94 5.84 5.12 5.84 2.68 0 4.46-1.44 4.95-3.83h4.44c-.58 4.72-4.25 7.72-9.31 7.72-5.72 0-9.69-4.06-9.69-9.71Zm25.42-9.38h4.35v7.28h7.48v-7.28h4.36v18.74h-4.36v-7.6h-7.48v7.6h-4.35V17.37Zm23.54 0h14.15v3.72h-9.8v3.68h8.86v3.56h-8.86v4.06h9.93v3.72h-14.28V17.37Zm20.83 0h8.39c2.44 0 4.36.67 5.67 1.94 1.04 1.03 1.61 2.47 1.61 4.28 0 2.85-1.52 4.8-4.04 5.66l4.7 6.86h-5.06l-4.09-6.14h-2.83v6.14h-4.35V17.37Zm8.06 8.94c2.09 0 3.24-.99 3.24-2.52 0-1.69-1.2-2.55-3.32-2.55h-3.63v5.07h3.71Zm15.19-8.94h4.35v18.74h-4.35V17.37Z"/>
  </g>
</svg>
